<svg width="512" height="512" fill="none" xmlns="http://www.w3.org/2000/svg"><style>@media (prefers-color-scheme:dark){.f{fill:#fff}.b{fill:#000}}</style><path class="b" fill="#fff" d="M0 0h512v512H0z"/><path class="f" d="M196.93 146.098c2.708-4.909 4.824-8.295 6.347-10.157 1.524-1.862 3.809-2.793 6.856-2.793 2.37 0 4.401.931 6.094 2.793 1.862 1.693 4.231 5.079 7.109 10.157l140.156 252.89c1.862 3.386 2.793 6.686 2.793 9.903 0 3.047-.846 5.416-2.539 7.109-1.693 1.693-3.724 2.539-6.094 2.539-2.369 0-4.739-.846-7.109-2.539-2.201-1.523-4.486-4.401-6.855-8.633l-43.165-78.203H119.742L76.07 408.383c-1.862 3.555-4.062 6.094-6.601 7.617-2.37 1.693-4.74 2.539-7.11 2.539-2.877 0-4.993-1.016-6.347-3.047s-2.032-4.739-2.032-8.125c0-1.354.254-2.708.762-4.062l2.285-4.571L196.93 146.098zm96.23 168.086-83.027-151.582-83.028 151.582H293.16zm88.66-72.719c-13.476 0-24.853-1.319-34.131-3.955-9.277-2.735-16.796-6.592-22.558-11.572-5.664-4.981-9.766-11.036-12.305-18.165-2.539-7.128-3.808-15.185-3.808-24.169 0-10.352 1.416-19.19 4.248-26.514 2.929-7.422 7.373-13.526 13.33-18.311 6.054-4.785 13.623-8.3 22.705-10.547 9.179-2.246 20.019-3.369 32.519-3.369s23.291 1.123 32.373 3.369c9.18 2.247 16.748 5.762 22.705 10.547 6.055 4.785 10.498 10.889 13.331 18.311 2.929 7.324 4.394 16.162 4.394 26.514 0 8.984-1.269 17.041-3.809 24.169-2.539 7.129-6.689 13.184-12.451 18.165-5.664 4.98-13.134 8.837-22.412 11.572-9.277 2.636-20.654 3.955-34.131 3.955zm0-8.643c8.887 0 16.553-.634 22.998-1.904 6.446-1.367 11.914-3.223 16.407-5.566 4.589-2.344 8.252-5.079 10.986-8.204 2.832-3.125 5.029-6.494 6.592-10.107 1.66-3.711 2.734-7.52 3.222-11.426a82.84 82.84 0 0 0 .879-12.011c0-9.083-1.172-16.797-3.515-23.145-2.344-6.348-6.006-11.523-10.987-15.527-4.98-4.004-11.328-6.885-19.043-8.643-7.714-1.855-16.894-2.783-27.539-2.783-10.742 0-19.97.928-27.685 2.783-7.617 1.758-13.916 4.639-18.897 8.643-4.98 4.004-8.642 9.179-10.986 15.527-2.344 6.348-3.516 14.062-3.516 23.145 0 4.003.244 8.007.733 12.011a47.528 47.528 0 0 0 3.222 11.426c1.661 3.613 3.858 6.982 6.592 10.107 2.832 3.125 6.494 5.86 10.987 8.204 4.589 2.343 10.107 4.199 16.552 5.566 6.446 1.27 14.112 1.904 22.998 1.904z" fill="#000"/><path class="f" d="m347.689 237.51-.282.959.009.003.273-.962zm-22.558-11.572-.661.75.007.006.654-.756zm-11.865-68.848-.931-.367-.002.006.933.361zm13.33-18.311-.62-.784-.007.005.627.779zm22.705-10.547-.238-.971-.002.001.24.97zm64.892 0-.24.971.003.001.237-.972zm22.705 10.547-.626.78.006.005.62-.785zm13.331 18.311-.935.356.003.008.003.007.929-.371zm-11.866 68.848-.654-.757-.006.006.66.751zm-22.412 11.572.274.962.009-.003-.283-.959zm-11.133-6.592.194.981.007-.001.007-.002-.208-.978zm16.407-5.566-.455-.891-.008.004.463.887zm10.986-8.204-.741-.671-.006.006-.006.007.753.658zm6.592-10.107-.913-.408-.005.011.918.397zm3.222-11.426-.989-.145-.002.011-.001.01.992.124zm-32.666-59.326-.233.972.011.003.222-.975zm-55.224 0 .225.974.009-.002-.234-.972zm-32.666 59.326-.993.121.002.014.002.014.989-.149zm3.222 11.426-.921.388.006.015.007.015.908-.418zm6.592 10.107-.752.659.005.007.006.006.741-.672zm10.987 8.204-.463.886.008.004.455-.89zm16.552 5.566-.207.978.007.002.007.001.193-.981zm22.998 9.547c-13.417 0-24.696-1.313-33.857-3.917l-.547 1.924c9.394 2.669 20.869 3.993 34.404 3.993v-2zm-33.848-3.914c-9.176-2.705-16.558-6.504-22.187-11.37l-1.308 1.513c5.894 5.095 13.551 9.011 22.93 11.775l.565-1.918zm-22.181-11.364c-5.536-4.868-9.541-10.78-12.023-17.749l-1.884.671c2.596 7.288 6.794 13.486 12.587 18.579l1.32-1.501zm-12.023-17.749c-2.494-7.003-3.75-14.944-3.75-23.834h-2c0 9.077 1.282 17.25 3.866 24.505l1.884-.671zm-3.75-23.834c0-10.266 1.404-18.974 4.18-26.154l-1.865-.721c-2.888 7.47-4.315 16.437-4.315 26.875h2zm4.178-26.147c2.869-7.268 7.21-13.227 13.026-17.898L325.969 138c-6.098 4.898-10.643 11.147-13.634 18.723l1.861.734zm13.02-17.893c5.921-4.68 13.352-8.142 22.325-10.361l-.48-1.941c-9.192 2.273-16.898 5.842-23.085 10.733l1.24 1.569zm22.322-10.36c9.082-2.222 19.838-3.341 32.282-3.341v-2c-12.556 0-23.479 1.128-32.757 3.398l.475 1.943zm32.282-3.341c12.445 0 23.151 1.119 32.133 3.34l.48-1.941c-9.181-2.271-20.057-3.399-32.613-3.399v2zm32.136 3.341c9.07 2.219 16.497 5.68 22.316 10.355l1.253-1.559c-6.095-4.896-13.805-8.466-23.094-10.739l-.475 1.943zm22.322 10.36c5.909 4.67 10.246 10.624 13.016 17.882l1.869-.713c-2.895-7.585-7.444-13.838-13.645-18.738l-1.24 1.569zm13.022 17.897c2.87 7.176 4.323 15.88 4.323 26.143h2c0-10.442-1.477-19.413-4.466-26.886l-1.857.743zm4.323 26.143c0 8.89-1.256 16.831-3.751 23.834l1.884.671c2.584-7.255 3.867-15.428 3.867-24.505h-2zm-3.751 23.834c-2.48 6.965-6.531 12.875-12.163 17.743l1.308 1.513c5.892-5.093 10.142-11.292 12.739-18.585l-1.884-.671zm-12.169 17.749c-5.529 4.861-12.859 8.659-22.035 11.364l.566 1.918c9.379-2.764 16.99-6.681 22.79-11.781l-1.321-1.501zm-22.025 11.361c-9.161 2.604-20.44 3.917-33.858 3.917v2c13.536 0 25.011-1.324 34.405-3.993l-.547-1.924zm-33.858-2.726c8.931 0 16.665-.637 23.192-1.923l-.387-1.962c-6.364 1.253-13.962 1.885-22.805 1.885v2zm23.206-1.926c6.509-1.381 12.069-3.262 16.661-5.658l-.925-1.773c-4.392 2.291-9.77 4.121-16.151 5.475l.415 1.956zm16.653-5.654c4.677-2.388 8.449-5.194 11.285-8.435l-1.506-1.317c-2.633 3.009-6.185 5.672-10.688 7.971l.909 1.781zm11.273-8.422c2.9-3.2 5.16-6.661 6.769-10.382l-1.836-.794c-1.516 3.506-3.651 6.783-6.415 9.833l1.482 1.343zm6.764-10.371c1.699-3.798 2.801-7.702 3.302-11.71l-1.985-.248c-.475 3.805-1.522 7.518-3.143 11.142l1.826.816zm3.299-11.689a83.83 83.83 0 0 0 .889-12.156h-2c0 3.954-.289 7.91-.868 11.866l1.979.29zm.889-12.156c0-9.163-1.181-17.002-3.577-23.491l-1.876.692c2.291 6.206 3.453 13.797 3.453 22.799h2zm-3.577-23.491c-2.403-6.508-6.168-11.837-11.298-15.961l-1.253 1.559c4.831 3.884 8.39 8.906 10.675 15.094l1.876-.692zm-11.298-15.961c-5.124-4.119-11.619-7.054-19.447-8.838l-.445 1.95c7.602 1.732 13.801 4.558 18.639 8.447l1.253-1.559zm-19.436-8.835c-7.812-1.879-17.074-2.811-27.773-2.811v2c10.591 0 19.688.923 27.306 2.755l.467-1.944zm-27.773-2.811c-10.795 0-20.106.932-27.919 2.811l.468 1.944c7.616-1.832 16.762-2.755 27.451-2.755v-2zm-27.91 2.809c-7.732 1.784-14.177 4.72-19.298 8.837l1.253 1.559c4.84-3.891 10.992-6.716 18.495-8.448l-.45-1.948zm-19.298 8.837c-5.13 4.124-8.896 9.453-11.298 15.961l1.876.692c2.285-6.188 5.844-11.21 10.675-15.094l-1.253-1.559zm-11.298 15.961c-2.396 6.489-3.578 14.328-3.578 23.491h2c0-9.002 1.163-16.593 3.454-22.799l-1.876-.692zm-3.578 23.491c0 4.044.247 8.089.74 12.132l1.985-.242a98.212 98.212 0 0 1-.725-11.89h-2zm.744 12.16a48.48 48.48 0 0 0 3.29 11.665l1.843-.776a46.48 46.48 0 0 1-3.155-11.186l-1.978.297zm3.303 11.695c1.702 3.704 3.953 7.154 6.748 10.348l1.505-1.317c-2.674-3.056-4.818-6.344-6.436-9.866l-1.817.835zm6.759 10.361c2.926 3.228 6.689 6.03 11.265 8.418l.925-1.773c-4.408-2.3-7.969-4.966-10.708-7.988l-1.482 1.343zm11.273 8.422c4.686 2.393 10.291 4.274 16.8 5.654l.415-1.956c-6.382-1.354-11.812-3.185-16.306-5.479l-.909 1.781zm16.814 5.657c6.527 1.286 14.261 1.923 23.191 1.923v-2c-8.843 0-16.441-.632-22.804-1.885l-.387 1.962z" fill="#000"/></svg>